<svg height="512pt" viewBox="0 -40 512 512" width="512pt" xmlns="http://www.w3.org/2000/svg"><g fill="#afb6bb"><path d="m450.207031 256c-4.871093 0-8.828125-3.945312-8.828125-8.828125 0-14.601563-11.882812-26.480469-26.480468-26.480469h-317.796876c-14.597656 0-26.480468 11.878906-26.480468 26.480469 0 4.882813-3.957032 8.828125-8.828125 8.828125-4.871094 0-8.828125-3.945312-8.828125-8.828125 0-24.335937 19.800781-44.136719 44.136718-44.136719h317.796876c24.335937 0 44.136718 19.800782 44.136718 44.136719 0 4.882813-3.957031 8.828125-8.828125 8.828125zm0 0"/><path d="m256 317.792969c-4.871094 0-8.828125-3.945313-8.828125-8.828125v-185.378906c0-4.882813 3.957031-8.828126 8.828125-8.828126s8.828125 3.945313 8.828125 8.828126v185.378906c0 4.882812-3.957031 8.828125-8.828125 8.828125zm0 0"/><path d="m61.792969 317.792969c-4.871094 0-8.828125-3.945313-8.828125-8.828125v-61.792969c0-4.882813 3.957031-8.828125 8.828125-8.828125 4.871093 0 8.828125 3.945312 8.828125 8.828125v61.792969c0 4.882812-3.957032 8.828125-8.828125 8.828125zm0 0"/><path d="m450.207031 317.792969c-4.871093 0-8.828125-3.945313-8.828125-8.828125v-61.792969c0-4.882813 3.957032-8.828125 8.828125-8.828125 4.871094 0 8.828125 3.945312 8.828125 8.828125v61.792969c0 4.882812-3.957031 8.828125-8.828125 8.828125zm0 0"/></g><path d="m0 308.964844h123.585938v123.585937h-123.585938zm0 0" fill="#7383bf"/><path d="m388.414062 308.964844h123.585938v123.585937h-123.585938zm0 0" fill="#7383bf"/><path d="m194.207031 308.964844h123.585938v123.585937h-123.585938zm0 0" fill="#7383bf"/><path d="m35.308594 370.757812c-4.871094 0-8.824219-3.945312-8.824219-8.828124v-17.652344c0-4.882813 3.953125-8.828125 8.824219-8.828125h17.65625c4.875 0 8.828125 3.945312 8.828125 8.828125 0 4.878906-3.953125 8.824218-8.828125 8.824218h-8.828125v8.828126c0 4.882812-3.953125 8.828124-8.828125 8.828124zm0 0" fill="#556080"/><path d="m88.277344 406.070312h-17.65625c-4.875 0-8.828125-3.949218-8.828125-8.828124 0-4.882813 3.953125-8.828126 8.828125-8.828126h8.828125v-8.828124c0-4.882813 3.953125-8.828126 8.828125-8.828126 4.871094 0 8.824218 3.945313 8.824218 8.828126v17.65625c0 4.878906-3.953124 8.828124-8.824218 8.828124zm0 0" fill="#556080"/><path d="m229.515625 370.757812c-4.871094 0-8.824219-3.945312-8.824219-8.828124v-17.652344c0-4.882813 3.953125-8.828125 8.824219-8.828125h17.65625c4.875 0 8.828125 3.945312 8.828125 8.828125 0 4.878906-3.953125 8.824218-8.828125 8.824218h-8.828125v8.828126c0 4.882812-3.953125 8.828124-8.828125 8.828124zm0 0" fill="#556080"/><path d="m282.484375 406.070312h-17.65625c-4.875 0-8.828125-3.949218-8.828125-8.828124 0-4.882813 3.953125-8.828126 8.828125-8.828126h8.828125v-8.828124c0-4.882813 3.953125-8.828126 8.828125-8.828126 4.871094 0 8.824219 3.945313 8.824219 8.828126v17.65625c0 4.878906-3.953125 8.828124-8.824219 8.828124zm0 0" fill="#556080"/><path d="m194.207031 0h123.585938v123.585938h-123.585938zm0 0" fill="#7383bf"/><path d="m229.515625 61.792969c-4.871094 0-8.824219-3.945313-8.824219-8.828125v-17.65625c0-4.878906 3.953125-8.824219 8.824219-8.824219h17.65625c4.875 0 8.828125 3.945313 8.828125 8.824219 0 4.882812-3.953125 8.828125-8.828125 8.828125h-8.828125v8.828125c0 4.882812-3.953125 8.828125-8.828125 8.828125zm0 0" fill="#556080"/><path d="m282.484375 97.101562h-17.65625c-4.875 0-8.828125-3.945312-8.828125-8.824218 0-4.882813 3.953125-8.828125 8.828125-8.828125h8.828125v-8.828125c0-4.882813 3.953125-8.828125 8.828125-8.828125 4.871094 0 8.824219 3.945312 8.824219 8.828125v17.65625c0 4.878906-3.953125 8.824218-8.824219 8.824218zm0 0" fill="#556080"/><path d="m423.722656 370.757812c-4.871094 0-8.824218-3.945312-8.824218-8.828124v-17.652344c0-4.882813 3.953124-8.828125 8.824218-8.828125h17.65625c4.875 0 8.828125 3.945312 8.828125 8.828125 0 4.878906-3.953125 8.824218-8.828125 8.824218h-8.828125v8.828126c0 4.882812-3.953125 8.828124-8.828125 8.828124zm0 0" fill="#556080"/><path d="m476.691406 406.070312h-17.65625c-4.875 0-8.828125-3.949218-8.828125-8.828124 0-4.882813 3.953125-8.828126 8.828125-8.828126h8.828125v-8.828124c0-4.882813 3.953125-8.828126 8.828125-8.828126 4.871094 0 8.824219 3.945313 8.824219 8.828126v17.65625c0 4.878906-3.953125 8.828124-8.824219 8.828124zm0 0" fill="#556080"/></svg>