<svg id="Gradient" height="512" viewBox="0 0 512 512" width="512" xmlns="http://www.w3.org/2000/svg" xmlns:xlink="http://www.w3.org/1999/xlink"><linearGradient id="linear-gradient" gradientUnits="userSpaceOnUse" x1="256" x2="256" y1="496" y2="16"><stop offset="0" stop-color="#12bee5"/><stop offset=".5" stop-color="#c071e9"/><stop offset="1" stop-color="#f24f5a"/></linearGradient><path d="m456 352h-69.578l-2.422-1.615v-214.385a8 8 0 0 0 -2.343-5.657l-112-112a8 8 0 0 0 -5.657-2.343h-208a8 8 0 0 0 -8 8v464a8 8 0 0 0 8 8h320.446a40.191 40.191 0 0 0 17.888-4.223l23.555-11.777h38.111a8 8 0 0 0 8-8v-112a8 8 0 0 0 -8-8zm-184-308.686 84.686 84.686h-84.686zm-208-11.314h192v104a8 8 0 0 0 8 8h104v195.718l-26.422-17.618-13.578-18.1a8 8 0 0 0 0-16h-12l-12-16h24a8 8 0 0 0 0-16h-192a8 8 0 0 0 0 16h126.968a39.644 39.644 0 0 0 -8.4 16h-54.568a8 8 0 0 0 0 16h53.646a39.846 39.846 0 0 0 6.313 16.361l21.111 31.666c-.355-.015-.711-.027-1.07-.027h-64a23.984 23.984 0 0 0 -17.869 40 23.943 23.943 0 0 0 0 32 23.978 23.978 0 0 0 11.569 39.154 23.923 23.923 0 0 0 -.324 16.846h-145.376zm152 416a8 8 0 0 1 0-16h64a8 8 0 0 1 0 16zm-8-72a8.009 8.009 0 0 1 8-8h64a8 8 0 0 1 0 16h-64a8.009 8.009 0 0 1 -8-8zm80 32a8.009 8.009 0 0 1 -8 8h-64a8 8 0 0 1 0-16h64a8.009 8.009 0 0 1 8 8zm-56 72a8 8 0 0 1 0-16h48a8 8 0 0 1 0 16zm216-16h-32a7.994 7.994 0 0 0 -3.578.845l-25.243 12.622a24.127 24.127 0 0 1 -10.733 2.533h-73.822a23.943 23.943 0 0 0 -4.755-24 23.943 23.943 0 0 0 0-32 23.853 23.853 0 0 0 5.928-19.071 71.885 71.885 0 0 0 56.203 27.071 8 8 0 0 0 0-16 56.063 56.063 0 0 1 -56-56 8 8 0 0 0 -1.344-4.438l-29.384-44.076a24 24 0 0 1 7.621-33.892l5.036-3.022 43.671 58.228a8.014 8.014 0 0 0 1.962 1.856l48 32a8 8 0 0 0 4.438 1.344h64zm-264-304a8 8 0 0 1 0 16h-48a8 8 0 0 1 0-16zm32 0h112a8 8 0 0 1 0 16h-112a8 8 0 0 1 0-16zm-120 40a8 8 0 0 1 8-8h112a8 8 0 0 1 0 16h-112a8 8 0 0 1 -8-8zm0 32a8 8 0 0 1 8-8h112a8 8 0 0 1 0 16h-112a8 8 0 0 1 -8-8zm232-40h-80a8 8 0 0 0 -8 8v32a8 8 0 0 0 8 8h80a8 8 0 0 0 8-8v-32a8 8 0 0 0 -8-8zm-8 32h-64v-16h64zm-216-80h128a8 8 0 0 0 8-8v-64a8 8 0 0 0 -8-8h-128a8 8 0 0 0 -8 8v64a8 8 0 0 0 8 8zm8-64h112v48h-112zm-16 216a8 8 0 0 1 8-8h64a8 8 0 0 1 0 16h-64a8 8 0 0 1 -8-8zm0 32a8 8 0 0 1 8-8h144a8 8 0 0 1 0 16h-144a8 8 0 0 1 -8-8zm72 24h-64a8 8 0 0 0 -8 8v80a8 8 0 0 0 8 8h64a8 8 0 0 0 8-8v-80a8 8 0 0 0 -8-8zm-8 80h-48v-64h48z" fill="url(#linear-gradient)"/></svg>