<?xml version="1.0" encoding="UTF-8"?>
<svg xmlns="http://www.w3.org/2000/svg" xmlns:xlink="http://www.w3.org/1999/xlink" id="Gradient" viewBox="0 0 512 512" width="512" height="512"><defs><linearGradient id="linear-gradient" x1="256" y1="496" x2="256" y2="16" gradientUnits="userSpaceOnUse"><stop offset="0" stop-color="#12bee5"/><stop offset="0.5" stop-color="#c071e9"/><stop offset="1" stop-color="#f24f5a"/></linearGradient></defs><path d="M472,160H443.966a126.693,126.693,0,0,0-14.415-34.237l16.106-16.106a8,8,0,0,0,0-11.314l-32-32a8,8,0,0,0-11.314,0L386.237,82.449A126.691,126.691,0,0,0,352,68.033V40a8,8,0,0,0-8-8H304V24a8,8,0,0,0-8-8A183.288,183.288,0,0,0,172.193,64h-29a40,40,0,1,0,0,16h13.434a183.951,183.951,0,0,0-35.9,64h-42.1a24,24,0,1,0,0,16h37.768a184.3,184.3,0,0,0-2.822,64H78.624a24,24,0,1,0,0,16h37.75a183.074,183.074,0,0,0,15.566,43.413A39.975,39.975,0,1,0,143.2,320h13.3A184.93,184.93,0,0,0,192,351.794V360a23.853,23.853,0,0,0,1.7,8.846A23.978,23.978,0,0,0,182.131,408,23.977,23.977,0,0,0,192,446.624V456a40.045,40.045,0,0,0,40,40H360a40.045,40.045,0,0,0,40-40v-9.376A23.977,23.977,0,0,0,409.869,408,23.984,23.984,0,0,0,392,368H304V352h40a8,8,0,0,0,8-8V315.967a126.691,126.691,0,0,0,34.237-14.416l16.106,16.106a8,8,0,0,0,11.314,0l32-32a8,8,0,0,0,0-11.314l-16.106-16.106A126.693,126.693,0,0,0,443.966,224H472a8,8,0,0,0,8-8V168A8,8,0,0,0,472,160ZM104,96a24,24,0,1,1,24-24A24.028,24.028,0,0,1,104,96ZM56,160a8,8,0,1,1,8-8A8.009,8.009,0,0,1,56,160Zm0,80a8,8,0,1,1,8-8A8.009,8.009,0,0,1,56,240Zm248-93.265a48,48,0,1,1,0,90.53Zm0,107.231a64,64,0,1,0,0-123.931V113.608a80,80,0,1,1,0,156.785ZM288,32.188V128H256V72a8,8,0,0,0-8-8H197.483A167.032,167.032,0,0,1,288,32.188ZM178.55,80H240v56a8,8,0,0,0,8,8h40v16H200v-8a8,8,0,0,0-8-8H137.6A168.4,168.4,0,0,1,178.55,80ZM128,200a167.81,167.81,0,0,1,4.819-40H184v8a8,8,0,0,0,8,8h96v32H192a8,8,0,0,0-8,8v8H129.725A169.32,169.32,0,0,1,128,200Zm64,40a8,8,0,0,0,8-8v-8h88v16H248a8,8,0,0,0-8,8v56H164.032a167.137,167.137,0,0,1-31.221-64Zm-88,96a24,24,0,1,1,24-24A24.028,24.028,0,0,1,104,336ZM360,480H232a24.028,24.028,0,0,1-24-24v-8H384v8A24.028,24.028,0,0,1,360,480Zm32-48H200a8,8,0,0,1,0-16H392a8,8,0,0,1,0,16Zm8-40a8.009,8.009,0,0,1-8,8H200a8,8,0,0,1,0-16H392A8.009,8.009,0,0,1,400,392ZM216,368a8.009,8.009,0,0,1-8-8V347.52a8,8,0,0,0-3.631-6.7A169.558,169.558,0,0,1,178.422,320H248a8,8,0,0,0,8-8V256h32V368ZM464,208H437.6a8,8,0,0,0-7.84,6.406,111.07,111.07,0,0,1-17.04,40.442A8,8,0,0,0,413.683,265l15,15L408,300.686l-15-15a8,8,0,0,0-10.149-.963,111.06,111.06,0,0,1-40.442,17.04A8,8,0,0,0,336,309.6V336H304V286.663a96,96,0,1,0,0-189.326V48h32V74.4a8,8,0,0,0,6.406,7.84,111.06,111.06,0,0,1,40.442,17.04A8,8,0,0,0,393,98.317l15-15L428.686,104l-15,15a8,8,0,0,0-.963,10.149,111.07,111.07,0,0,1,17.04,40.442A8,8,0,0,0,437.6,176H464Z" style="fill:url(#linear-gradient)"/></svg>
