<svg height="512pt" viewBox="-16 0 512 512" width="512pt" xmlns="http://www.w3.org/2000/svg" xmlns:xlink="http://www.w3.org/1999/xlink"><linearGradient id="a"><stop offset="0" stop-color="#12c2e9"/><stop offset=".5" stop-color="#c471ed"/><stop offset=".982" stop-color="#f64f59"/></linearGradient><linearGradient id="b" gradientUnits="userSpaceOnUse" x1="168" x2="168" xlink:href="#a" y1="624" y2="-37.336"/><linearGradient id="c" gradientUnits="userSpaceOnUse" x1="144" x2="144" xlink:href="#a" y1="624" y2="-37.336"/><linearGradient id="d" gradientUnits="userSpaceOnUse" x1="312" x2="312" xlink:href="#a" y1="624" y2="-37.336"/><linearGradient id="e" gradientUnits="userSpaceOnUse" x1="336" x2="336" xlink:href="#a" y1="624" y2="-37.336"/><linearGradient id="f" gradientUnits="userSpaceOnUse" x1="240" x2="240" xlink:href="#a" y1="624" y2="-37.336"/><linearGradient id="g" gradientUnits="userSpaceOnUse" x1="240" x2="240" xlink:href="#a" y1="624.016" y2="-37.32"/><path d="m184 176c0 8.835938-7.164062 16-16 16s-16-7.164062-16-16 7.164062-16 16-16 16 7.164062 16 16zm0 0" fill="url(#b)"/><path d="m168 136c0-4.417969-3.582031-8-8-8-22.082031.027344-39.972656 17.917969-40 40 0 4.417969 3.582031 8 8 8s8-3.582031 8-8c0-13.253906 10.746094-24 24-24 4.417969 0 8-3.582031 8-8zm0 0" fill="url(#c)"/><path d="m328 176c0 8.835938-7.164062 16-16 16s-16-7.164062-16-16 7.164062-16 16-16 16 7.164062 16 16zm0 0" fill="url(#d)"/><path d="m320 144c13.253906 0 24 10.746094 24 24 0 4.417969 3.582031 8 8 8s8-3.582031 8-8c-.027344-22.082031-17.917969-39.972656-40-40-4.417969 0-8 3.582031-8 8s3.582031 8 8 8zm0 0" fill="url(#e)"/><path d="m280 216c0-4.417969-3.582031-8-8-8h-64c-4.417969 0-8 3.582031-8 8 0 22.089844 17.910156 40 40 40s40-17.910156 40-40zm-62.632812 8h45.265624c-3.386718 9.597656-12.457031 16.011719-22.632812 16.011719s-19.246094-6.414063-22.632812-16.011719zm0 0" fill="url(#f)"/><path d="m407.839844 384h-63.640625l-16.199219-.40625c-21.71875.074219-39.492188-17.277344-39.9375-38.992188 52.539062-16.71875 92.820312-59.234374 106.671875-112.601562h5.265625c17.648438 0 32-17.945312 32-40 .074219-9.339844-2.71875-18.472656-8-26.175781v-29.824219c-.082031-75.074219-60.925781-135.9179688-136-136h-96c-75.074219.0820312-135.917969 60.925781-136 136v29.824219c-5.28125 7.703125-8.074219 16.835937-8 26.175781 0 22.054688 14.351562 40 32 40h5.265625c13.851563 53.367188 54.132813 95.882812 106.671875 112.601562-.472656 21.78125-18.351562 39.148438-40.136719 38.992188l-15.800781.40625h-63.839844c-39.835937.042969-72.1171872 32.324219-72.160156 72.160156v47.839844c0 4.417969 3.582031 8 8 8h464c4.417969 0 8-3.582031 8-8v-47.839844c-.042969-39.835937-32.324219-72.117187-72.160156-72.160156zm-177.601563 96h19.503907l4 16h-27.496094zm20.800781-16h-22.09375l-8.714843-17.433594 19.769531-10.039062 19.769531 10.039062zm-61.726562-19.679688-12.410156-49.601562 44.464844 33.351562zm69.289062-16.28125 44.460938-33.351562-12.40625 49.601562zm141.398438-212.039062h-2c1.269531-7.9375 1.941406-15.960938 2-24-.0625-8.039062-.722656-16.058594-1.976562-24h1.976562c8.671875 0 16 10.992188 16 24s-7.328125 24-16 24zm-208-200h96c66.242188.074219 119.925781 53.757812 120 120v17.425781c-2.574219-.898437-5.273438-1.378906-8-1.425781h-5.222656c-7.265625-28.398438-22.246094-54.230469-43.289063-74.640625-2.464843-2.382813-6.175781-2.929687-9.222656-1.359375-24.914063 12.695312-62.195313 20-102.265625 20s-77.351562-7.304688-102.265625-20c-3.054687-1.5625-6.765625-1.003906-9.222656 1.390625-21.035157 20.398437-36.019531 46.222656-43.289063 74.609375h-5.222656c-2.726562.046875-5.425781.527344-8 1.425781v-17.425781c.074219-66.242188 53.757812-119.925781 120-120zm-112 200c-8.671875 0-16-10.992188-16-24s7.328125-24 16-24h1.976562c-1.253906 7.941406-1.914062 15.960938-1.976562 24 .058594 8.039062.730469 16.0625 2 24zm16-24c-.105469-36.96875 14.152344-72.535156 39.761719-99.199219 33.066406 13.453125 68.542969 19.988281 104.238281 19.199219 35.695312.789062 71.171875-5.746094 104.238281-19.199219 25.609375 26.664063 39.867188 62.230469 39.761719 99.199219 0 79.527344-64.472656 144-144 144s-144-64.472656-144-144zm111.761719 156.734375c21.269531 4.355469 43.207031 4.355469 64.476562 0 1.191407 13.734375 7.46875 26.527344 17.601563 35.875l-47.382813 35.535156c-1.605469-.535156-3.339843-.535156-4.945312 0l-47.398438-35.542969c10.152344-9.335937 16.445313-22.128906 17.648438-35.867187zm-191.761719 107.425781c.035156-31 25.160156-56.125 56.160156-56.160156h64l15.839844-.40625c3.164062-.019531 6.324219-.304688 9.441406-.851562l14.796875 59.203124c.589844 2.363282 2.226563 4.332032 4.441407 5.34375 2.21875.996094 4.769531.945313 6.945312-.144531l18.335938-9.320312 9.597656 19.113281-5.804688 23.0625h-193.753906zm448 39.839844h-193.753906l-5.765625-23.070312 9.597656-19.113282 18.335937 9.320313c2.175782 1.101562 4.730469 1.15625 6.945313.140625 2.21875-1.011719 3.851563-2.976563 4.441406-5.339844l14.792969-59.203125c3.054688.527344 6.148438.796875 9.246094.800781l16.160156.464844h63.839844c31 .035156 56.125 25.160156 56.160156 56.160156zm0 0" fill="url(#f)"/><path d="m232 192h16c4.417969 0 8-3.582031 8-8s-3.582031-8-8-8h-5.753906l5.515625-22.0625c.765625-2.800781-.042969-5.796875-2.113281-7.828125-2.074219-2.03125-5.082032-2.785156-7.867188-1.960937-2.785156.820312-4.902344 3.085937-5.542969 5.914062l-8 32c-.59375 2.390625-.058593 4.921875 1.457031 6.863281 1.515626 1.9375 3.84375 3.074219 6.304688 3.074219zm0 0" fill="url(#g)"/></svg>